<?xml version="1.0" encoding="UTF-8" standalone="no"?>
<!-- Created with Inkscape (http://www.inkscape.org/) -->

<svg
   width="125.44705mm"
   height="50.718102mm"
   viewBox="0 0 125.44705 50.718102"
   version="1.1"
   id="svg1"
   xml:space="preserve"
   inkscape:version="1.3.2 (091e20ef0f, 2023-11-25, custom)"
   sodipodi:docname="purine-pyrimidine-edges.inkscape.svg"
   xmlns:inkscape="http://www.inkscape.org/namespaces/inkscape"
   xmlns:sodipodi="http://sodipodi.sourceforge.net/DTD/sodipodi-0.dtd"
   xmlns="http://www.w3.org/2000/svg"
   xmlns:svg="http://www.w3.org/2000/svg"><sodipodi:namedview
     id="namedview1"
     pagecolor="#ffffff"
     bordercolor="#000000"
     borderopacity="0.25"
     inkscape:showpageshadow="false"
     inkscape:pageopacity="0.0"
     inkscape:pagecheckerboard="0"
     inkscape:deskcolor="#d1d1d1"
     inkscape:document-units="mm"
     inkscape:zoom="1.4866305"
     inkscape:cx="238.79505"
     inkscape:cy="37.669078"
     inkscape:window-width="2560"
     inkscape:window-height="1366"
     inkscape:window-x="0"
     inkscape:window-y="0"
     inkscape:window-maximized="1"
     inkscape:current-layer="layer1"
     showborder="false"
     borderlayer="false" /><defs
     id="defs1"><linearGradient
       id="swatch34"
       inkscape:swatch="solid"><stop
         style="stop-color:#000000;stop-opacity:1;"
         offset="0"
         id="stop34" /></linearGradient><marker
       style="overflow:visible"
       id="marker32"
       refX="0"
       refY="0"
       orient="auto-start-reverse"
       inkscape:stockid="Wide, heavy arrow"
       markerWidth="1"
       markerHeight="1"
       viewBox="0 0 1 1"
       inkscape:isstock="true"
       inkscape:collect="always"
       preserveAspectRatio="xMidYMid"><path
         style="fill:context-stroke;fill-rule:evenodd;stroke:none"
         d="m 1,0 -3,3 h -2 l 3,-3 -3,-3 h 2 z"
         id="path32" /></marker><marker
       style="overflow:visible"
       id="ArrowWideHeavy"
       refX="0"
       refY="0"
       orient="auto-start-reverse"
       inkscape:stockid="Wide, heavy arrow"
       markerWidth="1"
       markerHeight="1"
       viewBox="0 0 1 1"
       inkscape:isstock="true"
       inkscape:collect="always"
       preserveAspectRatio="xMidYMid"><path
         style="fill:context-stroke;fill-rule:evenodd;stroke:none"
         d="m 1,0 -3,3 h -2 l 3,-3 -3,-3 h 2 z"
         id="path30" /></marker><marker
       style="overflow:visible"
       id="ArrowWideHeavy-6"
       refX="0"
       refY="0"
       orient="auto-start-reverse"
       inkscape:stockid="Wide, heavy arrow"
       markerWidth="1"
       markerHeight="1"
       viewBox="0 0 1 1"
       inkscape:isstock="true"
       inkscape:collect="always"
       preserveAspectRatio="xMidYMid"><path
         style="fill:context-stroke;fill-rule:evenodd;stroke:none"
         d="m 1,0 -3,3 h -2 l 3,-3 -3,-3 h 2 z"
         id="path30-7" /></marker></defs><g
     inkscape:label="Layer 1"
     inkscape:groupmode="layer"
     id="layer1"
     transform="translate(-38.04867,-8.7178733)"><text
       xml:space="preserve"
       style="font-size:3.175px;font-family:Sans;-inkscape-font-specification:'Sans, Normal';fill:none;stroke:#000000;stroke-width:0.2"
       x="132.52464"
       y="133.01939"
       id="text35"><tspan
         sodipodi:role="line"
         id="tspan35"
         style="stroke-width:0.2"
         x="132.52464"
         y="133.01939" /></text><g
       id="g39"
       transform="translate(-5.5478636,-11.380656)"><g
         id="g38"><g
           id="g1"
           transform="matrix(0.26458333,0,0,0.26458333,104.70724,26.176926)"><text
             x="0"
             y="0"
             stroke="none"
             fill="#000000"
             transform="matrix(0.05,0,0,0.05,187.841,58.9375)"
             font-style="normal"
             font-weight="normal"
             font-size="320px"
             font-family="Helvetica"
             id="text1">NH</text><text
             x="0"
             y="0"
             stroke="none"
             fill="#000000"
             transform="matrix(0.05,0,0,0.05,161.87,103.989)"
             font-style="normal"
             font-weight="normal"
             font-size="320px"
             font-family="Helvetica"
             id="text2">N</text><path
             stroke="none"
             fill="#000000"
             transform="matrix(0.05,0,0,0.05,-143,-135)"
             d="m 6743.82,4357.37 -11.44,6.62 -11.45,-6.6 v -439.17 h 22.89 z"
             id="path2" /><path
             stroke="none"
             fill="#000000"
             transform="matrix(0.05,0,0,0.05,-143,-135)"
             d="m 6369.78,4587.36 -11.48,-19.81 362.63,-210.16 11.45,6.6 0.01,13.22 z"
             id="path3" /><path
             stroke="none"
             fill="#000000"
             transform="matrix(0.05,0,0,0.05,-143,-135)"
             d="m 6333.66,4525.03 -11.48,-19.81 332.41,-192.65 11.48,19.81 z"
             id="path4" /><path
             stroke="none"
             fill="#000000"
             transform="matrix(0.05,0,0,0.05,-143,-135)"
             d="m 5691.15,4376.45 1.31,-12.46 11.45,-6.61 363.39,210.18 -11.46,19.82 z"
             id="path5" /><path
             stroke="none"
             fill="#000000"
             transform="matrix(0.05,0,0,0.05,-143,-135)"
             d="m 5681.01,3772.3 11.45,-8.31 11.45,6.61 v 586.78 l -11.45,6.61 -11.45,-8.32 z"
             id="path6" /><path
             stroke="none"
             fill="#000000"
             transform="matrix(0.05,0,0,0.05,-143,-135)"
             d="m 5753.01,3805.59 h 22.9 v 516.86 h -22.9 z"
             id="path7" /><path
             stroke="none"
             fill="#000000"
             transform="matrix(0.05,0,0,0.05,-143,-135)"
             d="m 6212.96,3450.81 -0.01,26.43 -509.04,293.36 -11.45,-6.61 -1.3,-12.47 z"
             id="path8" /><path
             stroke="none"
             fill="#000000"
             transform="matrix(0.05,0,0,0.05,-143,-135)"
             d="m 6212.95,3477.24 0.01,-26.43 372.98,215.39 -11.45,19.83 z"
             id="path9" /><text
             x="0"
             y="0"
             stroke="none"
             fill="#000000"
             transform="matrix(0.05,0,0,0.05,107.332,49.6622)"
             font-style="normal"
             font-weight="normal"
             font-size="320px"
             font-family="Helvetica"
             id="text9">N</text><path
             stroke="none"
             fill="#000000"
             transform="matrix(0.05,0,0,0.05,-143,-135)"
             d="m 5003.54,3722.19 18.52,13.47 -238.76,328.37 h -28.31 z"
             id="path10" /><path
             stroke="none"
             fill="#000000"
             transform="matrix(0.05,0,0,0.05,-143,-135)"
             d="m 5061.81,3764.56 18.52,13.46 -212.85,292.74 -18.52,-13.47 z"
             id="path11" /><path
             stroke="none"
             fill="#000000"
             transform="matrix(0.05,0,0,0.05,-143,-135)"
             d="m 5263.31,3636.42 7.08,-21.77 420.77,136.87 1.3,12.47 -11.45,8.31 z"
             id="path12" /><text
             x="0"
             y="0"
             stroke="none"
             fill="#000000"
             transform="matrix(0.05,0,0,0.05,161.425,13.9396)"
             font-style="normal"
             font-weight="normal"
             font-size="320px"
             font-family="Helvetica"
             id="text12">O</text><path
             stroke="none"
             fill="#000000"
             transform="matrix(0.05,0,0,0.05,-143,-135)"
             d="m 6165.51,3028.14 h 22.89 v 456.63 h -22.89 z"
             id="path13" /><path
             stroke="none"
             fill="#000000"
             transform="matrix(0.05,0,0,0.05,-143,-135)"
             d="m 6237.51,3028.14 h 22.89 v 456.68 h -22.89 z"
             id="path14" /><text
             x="0"
             y="0"
             stroke="none"
             fill="#000000"
             transform="matrix(0.05,0,0,0.05,213.92,103.989)"
             font-style="normal"
             font-weight="normal"
             font-size="320px"
             font-family="Helvetica"
             id="text14">NH</text><text
             x="0"
             y="0"
             stroke="none"
             fill="#000000"
             transform="matrix(0.05,0,0,0.05,237.029,107.669)"
             font-style="normal"
             font-weight="normal"
             font-size="240px"
             font-family="Helvetica"
             id="text15">2</text><path
             stroke="none"
             fill="#000000"
             transform="matrix(0.05,0,0,0.05,-143,-135)"
             d="m 7108.25,4567.71 -11.45,19.83 -364.41,-210.33 -0.01,-13.22 11.44,-6.62 z"
             id="path15" /><text
             x="0"
             y="0"
             stroke="none"
             fill="#000000"
             transform="matrix(0.05,0,0,0.05,107.332,98.2129)"
             font-style="normal"
             font-weight="normal"
             font-size="320px"
             font-family="Helvetica"
             id="text16">N</text><path
             stroke="none"
             fill="#000000"
             transform="matrix(0.05,0,0,0.05,-143,-135)"
             d="m 5270.25,4513.37 -7.08,-21.78 417.84,-135.92 11.45,8.32 -1.31,12.46 z"
             id="path16" /><path
             stroke="none"
             fill="#000000"
             transform="matrix(0.05,0,0,0.05,-143,-135)"
             d="m 5021.32,4391.32 -18.52,13.47 -247.81,-340.76 h 28.31 z"
             id="path17" /><text
             x="0"
             y="0"
             stroke="none"
             fill="#000000"
             transform="matrix(0.05,0,0,0.05,66.1932,117.473)"
             font-style="normal"
             font-weight="normal"
             font-size="320px"
             font-family="Helvetica"
             id="text17">O</text><path
             stroke="none"
             fill="#000000"
             transform="matrix(0.05,0,0,0.05,-143,-135)"
             d="m 4673.63,5417.75 28.61,25.63 -6.45,25.63 h -774 l -5.72,-25.63 28.65,-25.63 z"
             id="path18" /><path
             stroke="none"
             fill="#000000"
             transform="matrix(0.05,0,0,0.05,-143,-135)"
             d="m 4920.09,5173.7 20.78,-4.5 10.43,5.11 -229.6,307.07 -19.46,-38 -28.61,-25.63 z"
             id="path19" /><path
             stroke="none"
             fill="#000000"
             transform="matrix(0.05,0,0,0.05,-143,-135)"
             d="m 4449.32,4999.18 7.96,-21.47 476.05,176.48 7.54,15.01 -20.78,4.5 z"
             id="path20" /><path
             stroke="none"
             fill="#000000"
             transform="matrix(0.05,0,0,0.05,-143,-135)"
             d="m 3693.45,5173.66 -20.98,-4.46 10.61,-16.12 472.91,-174.41 7.93,21.48 z"
             id="path21" /><path
             stroke="none"
             fill="#000000"
             transform="matrix(0.05,0,0,0.05,-143,-135)"
             d="m 3661.23,5173.29 11.24,-4.09 20.98,4.46 251.27,244.09 -28.65,25.63 -20.36,36.49 z"
             id="path22" /><text
             x="0"
             y="0"
             stroke="none"
             fill="#000000"
             transform="matrix(0.05,0,0,0.05,90.8891,167.349)"
             font-style="normal"
             font-weight="normal"
             font-size="320px"
             font-family="Helvetica"
             id="text22">OH</text><path
             stroke="none"
             fill="#000000"
             transform="matrix(0.05,0,0,0.05,-143,-135)"
             d="m 4781.36,5773.04 -22.43,4.59 -63.14,-308.62 6.45,-25.63 19.46,38 z"
             id="path23" /><text
             x="0"
             y="0"
             stroke="none"
             fill="#000000"
             transform="matrix(0.05,0,0,0.05,29.0264,168.349)"
             font-style="normal"
             font-weight="normal"
             font-size="320px"
             font-family="Helvetica"
             id="text23">HO</text><path
             stroke="none"
             fill="#000000"
             transform="matrix(0.05,0,0,0.05,-143,-135)"
             d="m 3843.94,5799.11 -22.28,-5.26 74.05,-313.98 20.36,-36.49 5.72,25.63 z"
             id="path24" /><path
             stroke="none"
             fill="#000000"
             transform="matrix(0.05,0,0,0.05,-143,-135)"
             d="m 3641.37,4801.11 22.2,-13.6 19.51,365.57 -10.61,16.12 -11.24,4.09 z"
             id="path25" /><text
             x="0"
             y="0"
             stroke="none"
             fill="#000000"
             transform="matrix(0.05,0,0,0.05,1.57291,98.7284)"
             font-style="normal"
             font-weight="normal"
             font-size="320px"
             font-family="Helvetica"
             id="text25">HO</text><path
             stroke="none"
             fill="#000000"
             transform="matrix(0.05,0,0,0.05,-143,-135)"
             d="m 3378.28,4648.95 11.46,-19.82 273.83,158.38 -22.2,13.6 z"
             id="path26" /><path
             stroke="none"
             fill="#000000"
             transform="matrix(0.05,0,0,0.05,-143,-135)"
             d="m 5062.39,4713.12 21.97,6.43 -133.06,454.76 -10.43,-5.11 -7.54,-15.01 z"
             id="path27" /></g><path
           style="fill:#000000;stroke:#000000;stroke-width:0.2;marker-end:url(#ArrowWideHeavy-6)"
           d="M 166.97243,45.156656 156.16971,28.841306"
           id="path28-7" /><path
           style="fill:none;stroke:#000000;stroke-width:0.2;marker-end:url(#marker32)"
           d="m 137.6948,68.84548 11.27988,-12.378444 14.39593,0.29599"
           id="path34" /><path
           style="fill:none;stroke:#000000;stroke-width:0.2;marker-end:url(#marker32)"
           d="m 146.90652,24.838886 -16.18989,6.83914"
           id="path35" /><text
           xml:space="preserve"
           style="font-style:normal;font-variant:normal;font-weight:normal;font-stretch:normal;font-size:2.46944px;font-family:Sans;-inkscape-font-specification:'Sans, Normal';font-variant-ligatures:normal;font-variant-caps:normal;font-variant-numeric:normal;font-variant-east-asian:normal;fill:#000000;fill-opacity:1;stroke:none;stroke-width:0.2"
           x="112.0446"
           y="-115.7709"
           id="text36"
           transform="rotate(56.618256)"><tspan
             sodipodi:role="line"
             id="tspan36"
             style="font-style:normal;font-variant:normal;font-weight:normal;font-stretch:normal;font-size:2.46944px;font-family:Sans;-inkscape-font-specification:'Sans, Normal';font-variant-ligatures:normal;font-variant-caps:normal;font-variant-numeric:normal;font-variant-east-asian:normal;fill:#000000;fill-opacity:1;stroke:none;stroke-width:0.2"
             x="112.0446"
             y="-115.7709">Watson-Crick</tspan></text><text
           xml:space="preserve"
           style="font-style:normal;font-variant:normal;font-weight:normal;font-stretch:normal;font-size:2.46944px;font-family:Sans;-inkscape-font-specification:'Sans, Normal';font-variant-ligatures:normal;font-variant-caps:normal;font-variant-numeric:normal;font-variant-east-asian:normal;fill:#000000;fill-opacity:1;stroke:none;stroke-width:0.2"
           x="153.49582"
           y="52.93718"
           id="text37"
           transform="rotate(2.2831069)"><tspan
             sodipodi:role="line"
             id="tspan37"
             style="stroke-width:0.2"
             x="153.49582"
             y="52.93718">Sugar</tspan></text><text
           xml:space="preserve"
           style="font-style:normal;font-variant:normal;font-weight:normal;font-stretch:normal;font-size:2.46944px;font-family:Sans;-inkscape-font-specification:'Sans, Normal';font-variant-ligatures:normal;font-variant-caps:normal;font-variant-numeric:normal;font-variant-east-asian:normal;fill:#000000;fill-opacity:1;stroke:none;stroke-width:0.2"
           x="110.8017"
           y="79.532219"
           id="text38"
           transform="rotate(-23.086663)"><tspan
             sodipodi:role="line"
             id="tspan38"
             style="stroke-width:0.2"
             x="110.8017"
             y="79.532219">Hoogsteen</tspan></text></g></g><g
       id="g40"
       transform="translate(-5.5478636,-11.096803)"><g
         id="g2"
         transform="matrix(0.26458333,0,0,0.26458333,43.02576,23.511823)"><text
           x="0"
           y="0"
           stroke="none"
           fill="#000000"
           transform="matrix(0.05,0,0,0.05,133.269,59.1673)"
           font-style="normal"
           font-weight="normal"
           font-size="320px"
           font-family="Helvetica"
           id="text1-4">NH</text><path
           stroke="none"
           fill="#000000"
           transform="matrix(0.05,0,0,0.05,-172,-128)"
           d="m 5149.11,4139.56 -23.86,11.36 48.05,-611.32 21.79,14.97 z"
           id="path1" /><path
           stroke="none"
           fill="#000000"
           transform="matrix(0.05,0,0,0.05,-172,-128)"
           d="m 5223.62,4110.42 -22.82,-1.8 40.51,-515.35 22.82,1.79 z"
           id="path2-8" /><path
           stroke="none"
           fill="#000000"
           transform="matrix(0.05,0,0,0.05,-172,-128)"
           d="m 6197.45,3781.09 22.82,1.8 -35.48,451.33 -21.79,-14.97 z"
           id="path3-4" /><path
           stroke="none"
           fill="#000000"
           transform="matrix(0.05,0,0,0.05,-172,-128)"
           d="m 5724.5,3301.93 2.06,-26.35 351.85,241.36 -12.95,18.88 z"
           id="path4-8" /><path
           stroke="none"
           fill="#000000"
           transform="matrix(0.05,0,0,0.05,-172,-128)"
           d="m 5726.56,3275.58 -2.06,26.35 -529.41,252.64 -21.79,-14.97 z"
           id="path5-1" /><text
           x="0"
           y="0"
           stroke="none"
           fill="#000000"
           transform="matrix(0.05,0,0,0.05,110.239,14.3819)"
           font-style="normal"
           font-weight="normal"
           font-size="320px"
           font-family="Helvetica"
           id="text5">O</text><path
           stroke="none"
           fill="#000000"
           transform="matrix(0.05,0,0,0.05,-172,-128)"
           d="m 5711.55,2893.57 22.83,1.8 -32.31,410.92 -22.82,-1.79 z"
           id="path6-6" /><path
           stroke="none"
           fill="#000000"
           transform="matrix(0.05,0,0,0.05,-172,-128)"
           d="m 5778.26,2898.81 22.82,1.8 -32.3,410.89 -22.82,-1.8 z"
           id="path7-8" /><text
           x="0"
           y="0"
           stroke="none"
           fill="#000000"
           transform="matrix(0.05,0,0,0.05,155.237,106.12)"
           font-style="normal"
           font-weight="normal"
           font-size="320px"
           font-family="Helvetica"
           id="text7">O</text><path
           stroke="none"
           fill="#000000"
           transform="matrix(0.05,0,0,0.05,-172,-128)"
           d="m 6566.5,4439.26 -12.98,18.86 -382.85,-263.5 12.98,-18.86 z"
           id="path8-5" /><path
           stroke="none"
           fill="#000000"
           transform="matrix(0.05,0,0,0.05,-172,-128)"
           d="m 6525.6,4498.69 -12.98,18.86 -382.77,-263.43 12.98,-18.87 z"
           id="path9-2" /><text
           x="0"
           y="0"
           stroke="none"
           fill="#000000"
           transform="matrix(0.05,0,0,0.05,103.793,102.041)"
           font-style="normal"
           font-weight="normal"
           font-size="320px"
           font-family="Helvetica"
           id="text9-1">N</text><path
           stroke="none"
           fill="#000000"
           transform="matrix(0.05,0,0,0.05,-172,-128)"
           d="m 5125.25,4150.92 23.86,-11.36 339.28,234 -13,18.85 z"
           id="path10-9" /><path
           stroke="none"
           fill="#000000"
           transform="matrix(0.05,0,0,0.05,-172,-128)"
           d="m 6163,4219.25 21.79,14.97 -400.43,191.38 -9.87,-20.65 z"
           id="path11-9" /><text
           x="0"
           y="0"
           stroke="none"
           fill="#000000"
           transform="matrix(0.05,0,0,0.05,65.4495,127.473)"
           font-style="normal"
           font-weight="normal"
           font-size="320px"
           font-family="Helvetica"
           id="text11">O</text><path
           stroke="none"
           fill="#000000"
           transform="matrix(0.05,0,0,0.05,-172,-128)"
           d="m 5238.76,5477.75 28.6,25.63 -6.24,25.63 H 4486.7 l -5.5,-25.63 28.65,-25.63 z"
           id="path12-6" /><path
           stroke="none"
           fill="#000000"
           transform="matrix(0.05,0,0,0.05,-172,-128)"
           d="m 5485.22,5233.7 20.78,-4.5 10.84,4.57 -229.74,307.25 -19.74,-37.64 -28.6,-25.63 z"
           id="path13-0" /><path
           stroke="none"
           fill="#000000"
           transform="matrix(0.05,0,0,0.05,-172,-128)"
           d="m 5014.78,5059.3 7.96,-21.47 474.27,175.83 8.99,15.54 -20.78,4.5 z"
           id="path14-6" /><path
           stroke="none"
           fill="#000000"
           transform="matrix(0.05,0,0,0.05,-172,-128)"
           d="m 4258.58,5233.66 -20.98,-4.46 10.6,-16.12 472.6,-174.29 7.92,21.48 z"
           id="path15-4" /><path
           stroke="none"
           fill="#000000"
           transform="matrix(0.05,0,0,0.05,-172,-128)"
           d="m 4226.35,5233.29 11.25,-4.09 20.98,4.46 251.27,244.09 -28.65,25.63 -20.65,36.11 z"
           id="path16-9" /><text
           x="0"
           y="0"
           stroke="none"
           fill="#000000"
           transform="matrix(0.05,0,0,0.05,90.1455,176.349)"
           font-style="normal"
           font-weight="normal"
           font-size="320px"
           font-family="Helvetica"
           id="text16-9">OH</text><path
           stroke="none"
           fill="#000000"
           transform="matrix(0.05,0,0,0.05,-172,-128)"
           d="m 5345.15,5813.19 -22.39,4.78 -61.64,-288.96 6.24,-25.63 19.74,37.64 z"
           id="path17-0" /><text
           x="0"
           y="0"
           stroke="none"
           fill="#000000"
           transform="matrix(0.05,0,0,0.05,28.2827,177.349)"
           font-style="normal"
           font-weight="normal"
           font-size="320px"
           font-family="Helvetica"
           id="text17-8">HO</text><path
           stroke="none"
           fill="#000000"
           transform="matrix(0.05,0,0,0.05,-172,-128)"
           d="m 4410.48,5839.48 -22.23,-5.46 72.3,-294.53 20.65,-36.11 5.5,25.63 z"
           id="path18-9" /><path
           stroke="none"
           fill="#000000"
           transform="matrix(0.05,0,0,0.05,-172,-128)"
           d="m 4206.5,4861.11 22.2,-13.6 19.5,365.57 -10.6,16.12 -11.25,4.09 z"
           id="path19-3" /><text
           x="0"
           y="0"
           stroke="none"
           fill="#000000"
           transform="matrix(0.05,0,0,0.05,0.829254,108.728)"
           font-style="normal"
           font-weight="normal"
           font-size="320px"
           font-family="Helvetica"
           id="text19">HO</text><path
           stroke="none"
           fill="#000000"
           transform="matrix(0.05,0,0,0.05,-172,-128)"
           d="m 3943.41,4708.95 11.46,-19.82 273.83,158.38 -22.2,13.6 z"
           id="path20-1" /><path
           stroke="none"
           fill="#000000"
           transform="matrix(0.05,0,0,0.05,-172,-128)"
           d="m 5594.72,4634.66 22.58,3.81 -100.46,595.3 -10.84,-4.57 -8.99,-15.54 z"
           id="path21-4" /></g><path
         style="fill:#000000;stroke:#000000;stroke-width:0.2;marker-end:url(#ArrowWideHeavy)"
         d="M 90.913949,43.428879 80.552649,26.829704"
         id="path28" /><path
         style="fill:#000000;stroke:#000000;stroke-width:0.2;marker-end:url(#marker32)"
         d="M 71.645607,22.286936 60.870493,27.229432"
         id="path31" /><path
         style="fill:#000000;stroke:#000000;stroke-width:0.2;marker-end:url(#marker32)"
         d="M 74.770129,68.87733 87.987049,54.562526"
         id="path33" /><text
         xml:space="preserve"
         style="font-style:normal;font-variant:normal;font-weight:normal;font-stretch:normal;font-size:2.46944px;font-family:Sans;-inkscape-font-specification:'Sans, Normal';font-variant-ligatures:normal;font-variant-caps:normal;font-variant-numeric:normal;font-variant-east-asian:normal;fill:#000000;fill-opacity:1;stroke:none;stroke-width:0.2"
         x="67.795609"
         y="-54.63641"
         id="text36-1"
         transform="rotate(57.575057)"><tspan
           sodipodi:role="line"
           id="tspan36-7"
           style="font-style:normal;font-variant:normal;font-weight:normal;font-stretch:normal;font-size:2.46944px;font-family:Sans;-inkscape-font-specification:'Sans, Normal';font-variant-ligatures:normal;font-variant-caps:normal;font-variant-numeric:normal;font-variant-east-asian:normal;fill:#000000;fill-opacity:1;stroke:none;stroke-width:0.2"
           x="67.795609"
           y="-54.63641">Watson-Crick</tspan></text><text
         xml:space="preserve"
         style="font-style:normal;font-variant:normal;font-weight:normal;font-stretch:normal;font-size:2.46944px;font-family:Sans;-inkscape-font-specification:'Sans, Normal';font-variant-ligatures:normal;font-variant-caps:normal;font-variant-numeric:normal;font-variant-east-asian:normal;fill:#000000;fill-opacity:1;stroke:none;stroke-width:0.2"
         x="6.6395144"
         y="104.0348"
         id="text37-5"
         transform="rotate(-47.470457)"><tspan
           sodipodi:role="line"
           id="tspan37-7"
           style="stroke-width:0.2"
           x="6.6395144"
           y="104.0348">Sugar</tspan></text><text
         xml:space="preserve"
         style="font-style:normal;font-variant:normal;font-weight:normal;font-stretch:normal;font-size:2.46944px;font-family:Sans;-inkscape-font-specification:'Sans, Normal';font-variant-ligatures:normal;font-variant-caps:normal;font-variant-numeric:normal;font-variant-east-asian:normal;fill:#000000;fill-opacity:1;stroke:none;stroke-width:0.2"
         x="43.725819"
         y="49.365887"
         id="text38-7"
         transform="rotate(-24.945687)"><tspan
           sodipodi:role="line"
           id="tspan38-3"
           style="stroke-width:0.2"
           x="43.725819"
           y="49.365887">Hoogsteen</tspan></text></g></g></svg>
