<?xml version="1.0" encoding="UTF-8"?>
<!-- Created with Inkscape (http://www.inkscape.org/) -->
<svg width="125.45mm" height="50.718mm" version="1.1" viewBox="0 0 125.45 50.718" xml:space="preserve" xmlns="http://www.w3.org/2000/svg"><defs><marker id="marker32" overflow="visible" markerHeight="1" markerWidth="1" orient="auto-start-reverse" preserveAspectRatio="xMidYMid" viewBox="0 0 1 1"><path d="m1 0-3 3h-2l3-3-3-3h2z" fill="context-stroke" fill-rule="evenodd"/></marker><marker id="ArrowWideHeavy" overflow="visible" markerHeight="1" markerWidth="1" orient="auto-start-reverse" preserveAspectRatio="xMidYMid" viewBox="0 0 1 1"><path d="m1 0-3 3h-2l3-3-3-3h2z" fill="context-stroke" fill-rule="evenodd"/></marker><marker id="ArrowWideHeavy-6" overflow="visible" markerHeight="1" markerWidth="1" orient="auto-start-reverse" preserveAspectRatio="xMidYMid" viewBox="0 0 1 1"><path d="m1 0-3 3h-2l3-3-3-3h2z" fill="context-stroke" fill-rule="evenodd"/></marker></defs><g transform="translate(-38.049 -8.7179)"><text x="132.52464" y="133.01939" fill="none" font-family="Sans" font-size="3.175px" stroke="#000000" stroke-width=".2" xml:space="preserve"><tspan x="132.52464" y="133.01939" stroke-width=".2"/></text><g transform="translate(-5.5479 -11.381)"><g transform="matrix(.26458 0 0 .26458 104.71 26.177)"><text transform="matrix(.05 0 0 .05 187.84 58.938)" fill="#000000" font-family="Helvetica" font-size="320px">NH</text><text transform="matrix(.05 0 0 .05 161.87 103.99)" fill="#000000" font-family="Helvetica" font-size="320px">N</text><g><path transform="matrix(.05 0 0 .05 -143 -135)" d="m6743.8 4357.4-11.44 6.62-11.45-6.6v-439.17h22.89z"/><path transform="matrix(.05 0 0 .05 -143 -135)" d="m6369.8 4587.4-11.48-19.81 362.63-210.16 11.45 6.6 0.01 13.22z"/><path transform="matrix(.05 0 0 .05 -143 -135)" d="m6333.7 4525-11.48-19.81 332.41-192.65 11.48 19.81z"/><path transform="matrix(.05 0 0 .05 -143 -135)" d="m5691.2 4376.4 1.31-12.46 11.45-6.61 363.39 210.18-11.46 19.82z"/><path transform="matrix(.05 0 0 .05 -143 -135)" d="m5681 3772.3 11.45-8.31 11.45 6.61v586.78l-11.45 6.61-11.45-8.32z"/><path transform="matrix(.05 0 0 .05 -143 -135)" d="m5753 3805.6h22.9v516.86h-22.9z"/><path transform="matrix(.05 0 0 .05 -143 -135)" d="m6213 3450.8-0.01 26.43-509.04 293.36-11.45-6.61-1.3-12.47z"/><path transform="matrix(.05 0 0 .05 -143 -135)" d="m6213 3477.2 0.01-26.43 372.98 215.39-11.45 19.83z"/></g><text transform="matrix(.05 0 0 .05 107.33 49.662)" fill="#000000" font-family="Helvetica" font-size="320px">N</text><g><path transform="matrix(.05 0 0 .05 -143 -135)" d="m5003.5 3722.2 18.52 13.47-238.76 328.37h-28.31z"/><path transform="matrix(.05 0 0 .05 -143 -135)" d="m5061.8 3764.6 18.52 13.46-212.85 292.74-18.52-13.47z"/><path transform="matrix(.05 0 0 .05 -143 -135)" d="m5263.3 3636.4 7.08-21.77 420.77 136.87 1.3 12.47-11.45 8.31z"/></g><text transform="matrix(.05 0 0 .05 161.42 13.94)" fill="#000000" font-family="Helvetica" font-size="320px">O</text><path transform="matrix(.05 0 0 .05 -143 -135)" d="m6165.5 3028.1h22.89v456.63h-22.89z"/><path transform="matrix(.05 0 0 .05 -143 -135)" d="m6237.5 3028.1h22.89v456.68h-22.89z"/><text transform="matrix(.05 0 0 .05 213.92 103.99)" fill="#000000" font-family="Helvetica" font-size="320px">NH</text><text transform="matrix(.05 0 0 .05 237.03 107.67)" fill="#000000" font-family="Helvetica" font-size="240px">2</text><path transform="matrix(.05 0 0 .05 -143 -135)" d="m7108.2 4567.7-11.45 19.83-364.41-210.33-0.01-13.22 11.44-6.62z"/><text transform="matrix(.05 0 0 .05 107.33 98.213)" fill="#000000" font-family="Helvetica" font-size="320px">N</text><path transform="matrix(.05 0 0 .05 -143 -135)" d="m5270.2 4513.4-7.08-21.78 417.84-135.92 11.45 8.32-1.31 12.46z"/><path transform="matrix(.05 0 0 .05 -143 -135)" d="m5021.3 4391.3-18.52 13.47-247.81-340.76h28.31z"/><text transform="matrix(.05 0 0 .05 66.193 117.47)" fill="#000000" font-family="Helvetica" font-size="320px">O</text><g><path transform="matrix(.05 0 0 .05 -143 -135)" d="m4673.6 5417.8 28.61 25.63-6.45 25.63h-774l-5.72-25.63 28.65-25.63z"/><path transform="matrix(.05 0 0 .05 -143 -135)" d="m4920.1 5173.7 20.78-4.5 10.43 5.11-229.6 307.07-19.46-38-28.61-25.63z"/><path transform="matrix(.05 0 0 .05 -143 -135)" d="m4449.3 4999.2 7.96-21.47 476.05 176.48 7.54 15.01-20.78 4.5z"/><path transform="matrix(.05 0 0 .05 -143 -135)" d="m3693.4 5173.7-20.98-4.46 10.61-16.12 472.91-174.41 7.93 21.48z"/><path transform="matrix(.05 0 0 .05 -143 -135)" d="m3661.2 5173.3 11.24-4.09 20.98 4.46 251.27 244.09-28.65 25.63-20.36 36.49z"/></g><text transform="matrix(.05 0 0 .05 90.889 167.35)" fill="#000000" font-family="Helvetica" font-size="320px">OH</text><path transform="matrix(.05 0 0 .05 -143 -135)" d="m4781.4 5773-22.43 4.59-63.14-308.62 6.45-25.63 19.46 38z"/><text transform="matrix(.05 0 0 .05 29.026 168.35)" fill="#000000" font-family="Helvetica" font-size="320px">HO</text><path transform="matrix(.05 0 0 .05 -143 -135)" d="m3843.9 5799.1-22.28-5.26 74.05-313.98 20.36-36.49 5.72 25.63z"/><path transform="matrix(.05 0 0 .05 -143 -135)" d="m3641.4 4801.1 22.2-13.6 19.51 365.57-10.61 16.12-11.24 4.09z"/><text transform="matrix(.05 0 0 .05 1.5729 98.728)" fill="#000000" font-family="Helvetica" font-size="320px">HO</text><path transform="matrix(.05 0 0 .05 -143 -135)" d="m3378.3 4649 11.46-19.82 273.83 158.38-22.2 13.6z"/><path transform="matrix(.05 0 0 .05 -143 -135)" d="m5062.4 4713.1 21.97 6.43-133.06 454.76-10.43-5.11-7.54-15.01z"/></g><g stroke="#000" stroke-width=".2"><path d="m166.97 45.157-10.803-16.315" marker-end="url(#ArrowWideHeavy-6)"/><path d="m137.69 68.845 11.28-12.378 14.396 0.29599" fill="none" marker-end="url(#marker32)"/><path d="m146.91 24.839-16.19 6.8391" fill="none" marker-end="url(#marker32)"/></g><g fill="#000000" font-family="Sans" font-size="2.4694px" stroke-width=".2"><text transform="rotate(56.618)" x="112.0446" y="-115.7709" style="font-variant-caps:normal;font-variant-east-asian:normal;font-variant-ligatures:normal;font-variant-numeric:normal" xml:space="preserve"><tspan x="112.0446" y="-115.7709" fill="#000000" font-family="Sans" font-size="2.4694px" stroke-width=".2" style="font-variant-caps:normal;font-variant-east-asian:normal;font-variant-ligatures:normal;font-variant-numeric:normal">Watson-Crick</tspan></text><text transform="rotate(2.2831)" x="153.49582" y="52.93718" style="font-variant-caps:normal;font-variant-east-asian:normal;font-variant-ligatures:normal;font-variant-numeric:normal" xml:space="preserve"><tspan x="153.49582" y="52.93718" stroke-width=".2">Sugar</tspan></text><text transform="rotate(-23.087)" x="110.8017" y="79.532219" style="font-variant-caps:normal;font-variant-east-asian:normal;font-variant-ligatures:normal;font-variant-numeric:normal" xml:space="preserve"><tspan x="110.8017" y="79.532219" stroke-width=".2">Hoogsteen</tspan></text></g></g><g transform="translate(-5.5479 -11.097)"><g transform="matrix(.26458 0 0 .26458 43.026 23.512)"><text transform="matrix(.05 0 0 .05 133.27 59.167)" fill="#000000" font-family="Helvetica" font-size="320px">NH</text><g><path transform="matrix(.05 0 0 .05 -172 -128)" d="m5149.1 4139.6-23.86 11.36 48.05-611.32 21.79 14.97z"/><path transform="matrix(.05 0 0 .05 -172 -128)" d="m5223.6 4110.4-22.82-1.8 40.51-515.35 22.82 1.79z"/><path transform="matrix(.05 0 0 .05 -172 -128)" d="m6197.4 3781.1 22.82 1.8-35.48 451.33-21.79-14.97z"/><path transform="matrix(.05 0 0 .05 -172 -128)" d="m5724.5 3301.9 2.06-26.35 351.85 241.36-12.95 18.88z"/><path transform="matrix(.05 0 0 .05 -172 -128)" d="m5726.6 3275.6-2.06 26.35-529.41 252.64-21.79-14.97z"/></g><text transform="matrix(.05 0 0 .05 110.24 14.382)" fill="#000000" font-family="Helvetica" font-size="320px">O</text><path transform="matrix(.05 0 0 .05 -172 -128)" d="m5711.6 2893.6 22.83 1.8-32.31 410.92-22.82-1.79z"/><path transform="matrix(.05 0 0 .05 -172 -128)" d="m5778.3 2898.8 22.82 1.8-32.3 410.89-22.82-1.8z"/><text transform="matrix(.05 0 0 .05 155.24 106.12)" fill="#000000" font-family="Helvetica" font-size="320px">O</text><path transform="matrix(.05 0 0 .05 -172 -128)" d="m6566.5 4439.3-12.98 18.86-382.85-263.5 12.98-18.86z"/><path transform="matrix(.05 0 0 .05 -172 -128)" d="m6525.6 4498.7-12.98 18.86-382.77-263.43 12.98-18.87z"/><text transform="matrix(.05 0 0 .05 103.79 102.04)" fill="#000000" font-family="Helvetica" font-size="320px">N</text><path transform="matrix(.05 0 0 .05 -172 -128)" d="m5125.2 4150.9 23.86-11.36 339.28 234-13 18.85z"/><path transform="matrix(.05 0 0 .05 -172 -128)" d="m6163 4219.2 21.79 14.97-400.43 191.38-9.87-20.65z"/><text transform="matrix(.05 0 0 .05 65.45 127.47)" fill="#000000" font-family="Helvetica" font-size="320px">O</text><g><path transform="matrix(.05 0 0 .05 -172 -128)" d="m5238.8 5477.8 28.6 25.63-6.24 25.63h-774.42l-5.5-25.63 28.65-25.63z"/><path transform="matrix(.05 0 0 .05 -172 -128)" d="m5485.2 5233.7 20.78-4.5 10.84 4.57-229.74 307.25-19.74-37.64-28.6-25.63z"/><path transform="matrix(.05 0 0 .05 -172 -128)" d="m5014.8 5059.3 7.96-21.47 474.27 175.83 8.99 15.54-20.78 4.5z"/><path transform="matrix(.05 0 0 .05 -172 -128)" d="m4258.6 5233.7-20.98-4.46 10.6-16.12 472.6-174.29 7.92 21.48z"/><path transform="matrix(.05 0 0 .05 -172 -128)" d="m4226.4 5233.3 11.25-4.09 20.98 4.46 251.27 244.09-28.65 25.63-20.65 36.11z"/></g><text transform="matrix(.05 0 0 .05 90.146 176.35)" fill="#000000" font-family="Helvetica" font-size="320px">OH</text><path transform="matrix(.05 0 0 .05 -172 -128)" d="m5345.2 5813.2-22.39 4.78-61.64-288.96 6.24-25.63 19.74 37.64z"/><text transform="matrix(.05 0 0 .05 28.283 177.35)" fill="#000000" font-family="Helvetica" font-size="320px">HO</text><path transform="matrix(.05 0 0 .05 -172 -128)" d="m4410.5 5839.5-22.23-5.46 72.3-294.53 20.65-36.11 5.5 25.63z"/><path transform="matrix(.05 0 0 .05 -172 -128)" d="m4206.5 4861.1 22.2-13.6 19.5 365.57-10.6 16.12-11.25 4.09z"/><text transform="matrix(.05 0 0 .05 .82925 108.73)" fill="#000000" font-family="Helvetica" font-size="320px">HO</text><path transform="matrix(.05 0 0 .05 -172 -128)" d="m3943.4 4709 11.46-19.82 273.83 158.38-22.2 13.6z"/><path transform="matrix(.05 0 0 .05 -172 -128)" d="m5594.7 4634.7 22.58 3.81-100.46 595.3-10.84-4.57-8.99-15.54z"/></g><g stroke="#000" stroke-width=".2"><path d="m90.914 43.429-10.361-16.599" marker-end="url(#ArrowWideHeavy)"/><path d="m71.646 22.287-10.775 4.9425" marker-end="url(#marker32)"/><path d="m74.77 68.877 13.217-14.315" marker-end="url(#marker32)"/></g><g fill="#000000" font-family="Sans" font-size="2.4694px" stroke-width=".2"><text transform="rotate(57.575)" x="67.795609" y="-54.63641" style="font-variant-caps:normal;font-variant-east-asian:normal;font-variant-ligatures:normal;font-variant-numeric:normal" xml:space="preserve"><tspan x="67.795609" y="-54.63641" fill="#000000" font-family="Sans" font-size="2.4694px" stroke-width=".2" style="font-variant-caps:normal;font-variant-east-asian:normal;font-variant-ligatures:normal;font-variant-numeric:normal">Watson-Crick</tspan></text><text transform="rotate(-47.47)" x="6.6395144" y="104.0348" style="font-variant-caps:normal;font-variant-east-asian:normal;font-variant-ligatures:normal;font-variant-numeric:normal" xml:space="preserve"><tspan x="6.6395144" y="104.0348" stroke-width=".2">Sugar</tspan></text><text transform="rotate(-24.946)" x="43.725819" y="49.365887" style="font-variant-caps:normal;font-variant-east-asian:normal;font-variant-ligatures:normal;font-variant-numeric:normal" xml:space="preserve"><tspan x="43.725819" y="49.365887" stroke-width=".2">Hoogsteen</tspan></text></g></g></g></svg>
